<svg width="100%" height="100%" id="svg" viewBox="0 0 1440 590"
  xmlns="http://www.w3.org/2000/svg" class="transition duration-300 ease-in-out delay-150">
  <defs>
    <linearGradient id="gradient" x1="0%" y1="50%" x2="100%" y2="50%">
      <stop offset="5%" stop-color="#888888"></stop>
      <stop offset="95%" stop-color="#000000"></stop>
    </linearGradient>
  </defs>
  <path d="M 0,600 L 0,150 C 63.01435406698562,170.47846889952154 126.02870813397124,190.95693779904306 236,183 C 345.97129186602876,175.04306220095694 502.8995215311005,138.6507177033493 602,147 C 701.1004784688995,155.3492822966507 742.3732057416269,208.44019138755982 829,206 C 915.6267942583731,203.55980861244018 1047.6076555023924,145.58851674641147 1157,127 C 1266.3923444976076,108.41148325358851 1353.1961722488038,129.20574162679426 1440,150 L 1440,600 L 0,600 Z" stroke="none" stroke-width="0" fill="url(#gradient)" fill-opacity="0.53" class="transition-all duration-300 ease-in-out delay-150 path-0"></path>
  <defs>
    <linearGradient id="gradient" x1="0%" y1="50%" x2="100%" y2="50%">
      <stop offset="5%" stop-color="#888888"></stop>
      <stop offset="95%" stop-color="#000000"></stop>
    </linearGradient>
  </defs>
  <path d="M 0,600 L 0,350 C 110.03827751196172,318.51674641148327 220.07655502392345,287.0334928229665 306,284 C 391.92344497607655,280.9665071770335 453.73205741626793,306.3827751196173 542,314 C 630.2679425837321,321.6172248803827 744.9952153110048,311.4354066985646 840,307 C 935.0047846889952,302.5645933014354 1010.2870813397128,303.8755980861244 1107,312 C 1203.7129186602872,320.1244019138756 1321.8564593301435,335.0622009569378 1440,350 L 1440,600 L 0,600 Z" stroke="none" stroke-width="0" fill="url(#gradient)" fill-opacity="1" class="transition-all duration-300 ease-in-out delay-150 path-1"></path>
</svg>